<svg width="140" height="140" viewBox="0 0 140 140" fill="none" xmlns="http://www.w3.org/2000/svg">
<circle cx="70" cy="70" r="70" fill="white"/>
<circle cx="70" cy="71" r="60" fill="#185CFF"/>
<circle cx="71" cy="71" r="52" stroke="#C9DCEC"/>
<path d="M34.3574 75V64.92H35.8204V73.621H40.3844V75H34.3574ZM44.7859 75.21C44.0346 75.21 43.3742 75.0467 42.8049 74.72C42.2402 74.3887 41.7992 73.929 41.4819 73.341C41.1692 72.7483 41.0129 72.0623 41.0129 71.283C41.0129 70.457 41.1669 69.7407 41.4749 69.134C41.7876 68.5273 42.2216 68.0583 42.7769 67.727C43.3322 67.3957 43.9786 67.23 44.7159 67.23C45.4859 67.23 46.1416 67.4097 46.6829 67.769C47.2242 68.1237 47.6279 68.63 47.8939 69.288C48.1646 69.946 48.2719 70.7277 48.2159 71.633H46.7529V71.101C46.7436 70.2237 46.5756 69.575 46.2489 69.155C45.9269 68.735 45.4346 68.525 44.7719 68.525C44.0392 68.525 43.4886 68.756 43.1199 69.218C42.7512 69.68 42.5669 70.3473 42.5669 71.22C42.5669 72.0507 42.7512 72.6947 43.1199 73.152C43.4886 73.6047 44.0206 73.831 44.7159 73.831C45.1732 73.831 45.5676 73.7283 45.8989 73.523C46.2349 73.313 46.4962 73.0143 46.6829 72.627L48.1179 73.082C47.8239 73.7587 47.3782 74.2837 46.7809 74.657C46.1836 75.0257 45.5186 75.21 44.7859 75.21ZM42.0909 71.633V70.492H47.4879V71.633H42.0909ZM51.6447 75.21C51.0847 75.21 50.6157 75.1073 50.2377 74.902C49.8597 74.692 49.5727 74.4167 49.3767 74.076C49.1854 73.7307 49.0897 73.3527 49.0897 72.942C49.0897 72.5593 49.1574 72.2233 49.2927 71.934C49.428 71.6447 49.6287 71.3997 49.8947 71.199C50.1607 70.9937 50.4874 70.828 50.8747 70.702C51.2107 70.604 51.591 70.5177 52.0157 70.443C52.4404 70.3683 52.886 70.2983 53.3527 70.233C53.824 70.1677 54.2907 70.1023 54.7527 70.037L54.2207 70.331C54.23 69.7383 54.104 69.2997 53.8427 69.015C53.586 68.7257 53.1427 68.581 52.5127 68.581C52.116 68.581 51.752 68.6743 51.4207 68.861C51.0894 69.043 50.8584 69.3463 50.7277 69.771L49.3627 69.351C49.5494 68.7023 49.904 68.1867 50.4267 67.804C50.954 67.4213 51.654 67.23 52.5267 67.23C53.2034 67.23 53.7914 67.3467 54.2907 67.58C54.7947 67.8087 55.1634 68.1727 55.3967 68.672C55.518 68.9193 55.5927 69.1807 55.6207 69.456C55.6487 69.7313 55.6627 70.0277 55.6627 70.345V75H54.3677V73.271L54.6197 73.495C54.307 74.0737 53.908 74.5053 53.4227 74.79C52.942 75.07 52.3494 75.21 51.6447 75.21ZM51.9037 74.013C52.319 74.013 52.676 73.9407 52.9747 73.796C53.2734 73.6467 53.5137 73.4577 53.6957 73.229C53.8777 73.0003 53.9967 72.7623 54.0527 72.515C54.132 72.291 54.1764 72.039 54.1857 71.759C54.1997 71.479 54.2067 71.255 54.2067 71.087L54.6827 71.262C54.2207 71.332 53.8007 71.395 53.4227 71.451C53.0447 71.507 52.7017 71.563 52.3937 71.619C52.0904 71.6703 51.8197 71.7333 51.5817 71.808C51.381 71.878 51.2014 71.962 51.0427 72.06C50.8887 72.158 50.765 72.277 50.6717 72.417C50.583 72.557 50.5387 72.7273 50.5387 72.928C50.5387 73.124 50.5877 73.306 50.6857 73.474C50.7837 73.6373 50.933 73.768 51.1337 73.866C51.3344 73.964 51.591 74.013 51.9037 74.013ZM57.3404 75V67.44H58.6424V69.274L58.4604 69.036C58.5537 68.7933 58.6751 68.5717 58.8244 68.371C58.9737 68.1657 59.1464 67.9977 59.3424 67.867C59.5337 67.727 59.7461 67.6197 59.9794 67.545C60.2174 67.4657 60.4601 67.419 60.7074 67.405C60.9547 67.3863 61.1927 67.398 61.4214 67.44V68.812C61.1741 68.7467 60.8987 68.728 60.5954 68.756C60.2967 68.784 60.0214 68.8797 59.7694 69.043C59.5314 69.197 59.3424 69.3837 59.2024 69.603C59.0671 69.8223 58.9691 70.0673 58.9084 70.338C58.8477 70.604 58.8174 70.8863 58.8174 71.185V75H57.3404ZM67.9205 75V71.283C67.9205 70.989 67.8948 70.688 67.8435 70.38C67.7968 70.0673 67.7035 69.778 67.5635 69.512C67.4281 69.246 67.2345 69.0313 66.9825 68.868C66.7351 68.7047 66.4108 68.623 66.0095 68.623C65.7481 68.623 65.5008 68.6673 65.2675 68.756C65.0341 68.84 64.8288 68.9777 64.6515 69.169C64.4788 69.3603 64.3411 69.6123 64.2385 69.925C64.1405 70.2377 64.0915 70.618 64.0915 71.066L63.1815 70.723C63.1815 70.037 63.3098 69.4327 63.5665 68.91C63.8231 68.3827 64.1918 67.972 64.6725 67.678C65.1531 67.384 65.7341 67.237 66.4155 67.237C66.9381 67.237 67.3768 67.321 67.7315 67.489C68.0861 67.657 68.3731 67.8787 68.5925 68.154C68.8165 68.4247 68.9868 68.721 69.1035 69.043C69.2201 69.365 69.2995 69.68 69.3415 69.988C69.3835 70.296 69.4045 70.5667 69.4045 70.8V75H67.9205ZM62.6075 75V67.44H63.9165V69.624H64.0915V75H62.6075ZM82.8085 75L82.8155 70.289C82.8155 69.743 82.6755 69.3183 82.3955 69.015C82.1155 68.707 81.7468 68.553 81.2895 68.553C81.0095 68.553 80.7528 68.6183 80.5195 68.749C80.2908 68.875 80.1041 69.0663 79.9595 69.323C79.8195 69.575 79.7495 69.8923 79.7495 70.275L79.0425 69.918C79.0331 69.386 79.1451 68.9193 79.3785 68.518C79.6165 68.1167 79.9385 67.8063 80.3445 67.587C80.7505 67.363 81.2055 67.251 81.7095 67.251C82.5261 67.251 83.1585 67.496 83.6065 67.986C84.0545 68.476 84.2785 69.127 84.2785 69.939L84.2715 75H82.8085ZM73.7435 75V67.44H75.0455V69.624H75.2135V75H73.7435ZM78.2795 75L78.2865 70.317C78.2865 69.7663 78.1465 69.3347 77.8665 69.022C77.5911 68.7093 77.2201 68.553 76.7535 68.553C76.2915 68.553 75.9181 68.7117 75.6335 69.029C75.3535 69.3463 75.2135 69.7617 75.2135 70.275L74.5135 69.827C74.5135 69.3323 74.6325 68.8913 74.8705 68.504C75.1085 68.1167 75.4305 67.811 75.8365 67.587C76.2425 67.363 76.7021 67.251 77.2155 67.251C77.7521 67.251 78.2095 67.3653 78.5875 67.594C78.9655 67.818 79.2525 68.133 79.4485 68.539C79.6491 68.945 79.7495 69.4163 79.7495 69.953L79.7425 75H78.2795ZM89.1435 75.21C88.3875 75.21 87.7318 75.0397 87.1765 74.699C86.6211 74.3583 86.1918 73.8893 85.8885 73.292C85.5898 72.69 85.4405 71.997 85.4405 71.213C85.4405 70.4243 85.5945 69.7313 85.9025 69.134C86.2105 68.532 86.6421 68.0653 87.1975 67.734C87.7528 67.398 88.4015 67.23 89.1435 67.23C89.8995 67.23 90.5551 67.4003 91.1105 67.741C91.6658 68.0817 92.0951 68.5507 92.3985 69.148C92.7018 69.7453 92.8535 70.4337 92.8535 71.213C92.8535 72.0017 92.6995 72.697 92.3915 73.299C92.0881 73.8963 91.6588 74.3653 91.1035 74.706C90.5481 75.042 89.8948 75.21 89.1435 75.21ZM89.1435 73.831C89.8668 73.831 90.4058 73.5883 90.7605 73.103C91.1198 72.613 91.2995 71.983 91.2995 71.213C91.2995 70.4243 91.1175 69.7943 90.7535 69.323C90.3941 68.847 89.8575 68.609 89.1435 68.609C88.6535 68.609 88.2498 68.721 87.9325 68.945C87.6151 69.1643 87.3795 69.47 87.2255 69.862C87.0715 70.2493 86.9945 70.6997 86.9945 71.213C86.9945 72.0063 87.1765 72.641 87.5405 73.117C87.9045 73.593 88.4388 73.831 89.1435 73.831ZM94.2517 75V67.44H95.5537V69.274L95.3717 69.036C95.4651 68.7933 95.5864 68.5717 95.7357 68.371C95.8851 68.1657 96.0577 67.9977 96.2537 67.867C96.4451 67.727 96.6574 67.6197 96.8907 67.545C97.1287 67.4657 97.3714 67.419 97.6187 67.405C97.8661 67.3863 98.1041 67.398 98.3327 67.44V68.812C98.0854 68.7467 97.8101 68.728 97.5067 68.756C97.2081 68.784 96.9327 68.8797 96.6807 69.043C96.4427 69.197 96.2537 69.3837 96.1137 69.603C95.9784 69.8223 95.8804 70.0673 95.8197 70.338C95.7591 70.604 95.7287 70.8863 95.7287 71.185V75H94.2517ZM102.742 75.21C101.991 75.21 101.33 75.0467 100.761 74.72C100.196 74.3887 99.7554 73.929 99.4381 73.341C99.1254 72.7483 98.9691 72.0623 98.9691 71.283C98.9691 70.457 99.1231 69.7407 99.4311 69.134C99.7437 68.5273 100.178 68.0583 100.733 67.727C101.288 67.3957 101.935 67.23 102.672 67.23C103.442 67.23 104.098 67.4097 104.639 67.769C105.18 68.1237 105.584 68.63 105.85 69.288C106.121 69.946 106.228 70.7277 106.172 71.633H104.709V71.101C104.7 70.2237 104.532 69.575 104.205 69.155C103.883 68.735 103.391 68.525 102.728 68.525C101.995 68.525 101.445 68.756 101.076 69.218C100.707 69.68 100.523 70.3473 100.523 71.22C100.523 72.0507 100.707 72.6947 101.076 73.152C101.445 73.6047 101.977 73.831 102.672 73.831C103.129 73.831 103.524 73.7283 103.855 73.523C104.191 73.313 104.452 73.0143 104.639 72.627L106.074 73.082C105.78 73.7587 105.334 74.2837 104.737 74.657C104.14 75.0257 103.475 75.21 102.742 75.21ZM100.047 71.633V70.492H105.444V71.633H100.047Z" fill="white"/>
</svg>
