<svg width="14" height="18" viewBox="0 0 14 18" fill="none" xmlns="http://www.w3.org/2000/svg">
<path d="M5.44421 7.77986L6.78671 6.54986C7.15379 6.21288 7.4118 5.7739 7.52762 5.28925C7.64344 4.8046 7.61178 4.29639 7.43671 3.82986L6.86421 2.30111C6.65032 1.73038 6.22689 1.26267 5.68018 0.993261C5.13346 0.723852 4.5046 0.673016 3.92171 0.851108C1.77671 1.50736 0.127961 3.50111 0.635461 5.86861C0.969211 7.42611 1.60796 9.38111 2.81796 11.4611C4.03046 13.5461 5.41546 15.0861 6.60296 16.1686C8.39546 17.7999 10.958 17.3924 12.6067 15.8549C13.0487 15.4428 13.3168 14.8777 13.3566 14.2747C13.3963 13.6718 13.2046 13.0763 12.8205 12.6099L11.7705 11.3349C11.4538 10.9493 11.029 10.6673 10.5507 10.5252C10.0724 10.3831 9.56256 10.3873 9.08671 10.5374L7.35171 11.0836C6.90365 10.6212 6.511 10.1082 6.18171 9.55486C5.86388 8.9953 5.61618 8.39873 5.44421 7.77861V7.77986Z" fill="#185CFF"/>
</svg>
